# xmcd CD database file
#
# Track frame offsets:
#	187
#	20062
#	39787
#	59625
#
# Disc length: 1055 seconds
#
# Revision: 2
# Processed by: cddbd v1.5.1PL2 Copyright (c) Steve Scherf et al.
# Submitted via: CDex 1.51
#
DISCID=2e041d04
DTITLE=パイレーツ - INCANTATION
DYEAR=19980321
DGENRE=JPop
TTITLE0=INCANTATION
TTITLE1=フレンズ
TTITLE2=KARAOKE/INCANTATION
TTITLE3=KARAOKE/フレンズ
EXTD=YEAR: 19980321
EXTT0=
EXTT1=
EXTT2=
EXTT3=
PLAYORDER=
